<svg id="Layer_1" data-name="Layer 1" xmlns="http://www.w3.org/2000/svg" xmlns:xlink="http://www.w3.org/1999/xlink" viewBox="0 0 1920 1080"><defs><style>.cls-1{fill:#191919;}.cls-2{fill:url(#linear-gradient);}.cls-3{fill:url(#linear-gradient-2);}.cls-4{fill:url(#linear-gradient-3);}.cls-5{fill:url(#linear-gradient-4);}.cls-6{fill:url(#linear-gradient-5);}.cls-7{fill:url(#linear-gradient-6);}.cls-8{fill:url(#linear-gradient-7);}.cls-9{fill:url(#linear-gradient-8);}.cls-10{fill:url(#linear-gradient-9);}.cls-11{fill:url(#linear-gradient-10);}.cls-12{fill:url(#linear-gradient-11);}.cls-13{fill:url(#linear-gradient-12);}.cls-14{fill:url(#linear-gradient-13);}.cls-15{fill:url(#linear-gradient-14);}.cls-16{fill:url(#linear-gradient-15);}.cls-17{fill:url(#linear-gradient-16);}.cls-18{fill:url(#linear-gradient-17);}.cls-19{fill:url(#linear-gradient-18);}.cls-20{fill:url(#linear-gradient-19);}.cls-21{fill:url(#linear-gradient-20);}.cls-22{fill:url(#linear-gradient-21);}.cls-23{fill:url(#linear-gradient-22);}.cls-24{fill:url(#linear-gradient-23);}.cls-25{fill:url(#linear-gradient-24);}.cls-26{fill:url(#linear-gradient-25);}.cls-27{fill:url(#linear-gradient-26);}.cls-28{fill:url(#linear-gradient-27);}.cls-29{fill:url(#linear-gradient-28);}.cls-30{fill:url(#linear-gradient-29);}.cls-31{fill:url(#linear-gradient-30);}.cls-32{fill:url(#linear-gradient-31);}.cls-33{fill:url(#linear-gradient-32);}.cls-34{fill:url(#linear-gradient-33);}</style><linearGradient id="linear-gradient" x1="668.52" x2="1544.07" y2="875.55" gradientUnits="userSpaceOnUse"><stop offset="0" stop-color="#8c6034"/><stop offset="0.5" stop-color="#ffe79f"/><stop offset="1" stop-color="#8c6034"/></linearGradient><linearGradient id="linear-gradient-2" x1="632.31" y1="36.21" x2="1507.86" y2="911.76" xlink:href="#linear-gradient"/><linearGradient id="linear-gradient-3" x1="572.91" y1="95.61" x2="1448.46" y2="971.16" xlink:href="#linear-gradient"/><linearGradient id="linear-gradient-4" x1="609.78" y1="58.75" x2="1485.32" y2="934.29" xlink:href="#linear-gradient"/><linearGradient id="linear-gradient-5" x1="607.73" y1="60.79" x2="1483.28" y2="936.34" xlink:href="#linear-gradient"/><linearGradient id="linear-gradient-6" x1="605.24" y1="63.28" x2="1480.79" y2="938.83" xlink:href="#linear-gradient"/><linearGradient id="linear-gradient-7" x1="551.67" y1="116.85" x2="1427.22" y2="992.4" xlink:href="#linear-gradient"/><linearGradient id="linear-gradient-8" x1="615.23" y1="53.29" x2="1490.78" y2="928.84" xlink:href="#linear-gradient"/><linearGradient id="linear-gradient-9" x1="615.23" y1="53.29" x2="1490.78" y2="928.84" xlink:href="#linear-gradient"/><linearGradient id="linear-gradient-10" x1="342.66" y1="677.75" x2="1240.86" y2="1575.95" xlink:href="#linear-gradient"/><linearGradient id="linear-gradient-11" x1="373.16" y1="647.25" x2="1271.36" y2="1545.46" xlink:href="#linear-gradient"/><linearGradient id="linear-gradient-12" x1="409.99" y1="610.42" x2="1308.19" y2="1508.62" xlink:href="#linear-gradient"/><linearGradient id="linear-gradient-13" x1="440.47" y1="579.94" x2="1338.67" y2="1478.14" xlink:href="#linear-gradient"/><linearGradient id="linear-gradient-14" x1="485.11" y1="535.29" x2="1383.31" y2="1433.49" xlink:href="#linear-gradient"/><linearGradient id="linear-gradient-15" x1="565.8" y1="454.61" x2="1464.01" y2="1352.82" xlink:href="#linear-gradient"/><linearGradient id="linear-gradient-16" x1="614.3" y1="406.11" x2="1512.5" y2="1304.31" xlink:href="#linear-gradient"/><linearGradient id="linear-gradient-17" x1="650.76" y1="369.65" x2="1548.96" y2="1267.86" xlink:href="#linear-gradient"/><linearGradient id="linear-gradient-18" x1="681.24" y1="339.17" x2="1579.44" y2="1237.37" xlink:href="#linear-gradient"/><linearGradient id="linear-gradient-19" x1="723.26" y1="297.15" x2="1621.46" y2="1195.35" xlink:href="#linear-gradient"/><linearGradient id="linear-gradient-20" x1="764.35" y1="256.05" x2="1662.56" y2="1154.26" xlink:href="#linear-gradient"/><linearGradient id="linear-gradient-21" x1="811.37" y1="209.03" x2="1709.58" y2="1107.24" xlink:href="#linear-gradient"/><linearGradient id="linear-gradient-22" x1="377.32" y1="643.09" x2="1275.52" y2="1541.3" xlink:href="#linear-gradient"/><linearGradient id="linear-gradient-23" x1="404.4" y1="616.01" x2="1302.6" y2="1514.21" xlink:href="#linear-gradient"/><linearGradient id="linear-gradient-24" x1="428.96" y1="591.45" x2="1327.16" y2="1489.66" xlink:href="#linear-gradient"/><linearGradient id="linear-gradient-25" x1="453.62" y1="566.79" x2="1351.82" y2="1465" xlink:href="#linear-gradient"/><linearGradient id="linear-gradient-26" x1="483.37" y1="537.04" x2="1381.58" y2="1435.24" xlink:href="#linear-gradient"/><linearGradient id="linear-gradient-27" x1="511.75" y1="508.66" x2="1409.95" y2="1406.87" xlink:href="#linear-gradient"/><linearGradient id="linear-gradient-28" x1="539.3" y1="481.11" x2="1437.5" y2="1379.31" xlink:href="#linear-gradient"/><linearGradient id="linear-gradient-29" x1="556.97" y1="463.44" x2="1455.17" y2="1361.65" xlink:href="#linear-gradient"/><linearGradient id="linear-gradient-30" x1="577.19" y1="443.22" x2="1475.39" y2="1341.42" xlink:href="#linear-gradient"/><linearGradient id="linear-gradient-31" x1="601.09" y1="419.32" x2="1499.29" y2="1317.53" xlink:href="#linear-gradient"/><linearGradient id="linear-gradient-32" x1="630.84" y1="389.57" x2="1529.05" y2="1287.77" xlink:href="#linear-gradient"/><linearGradient id="linear-gradient-33" x1="655.31" y1="365.1" x2="1553.51" y2="1263.3" xlink:href="#linear-gradient"/></defs><title>vector file</title><rect class="cls-1" x="-4257.28" y="-60.17" width="6294.56" height="1200.35"/><path class="cls-2" d="M941.75,229l2.11.12A17.56,17.56,0,0,1,949,230a10.71,10.71,0,0,1,3.25,2,3.79,3.79,0,0,1,1.07,3V354.57a3.77,3.77,0,0,1-1.07,3,10.67,10.67,0,0,1-3.26,2,17.81,17.81,0,0,1-5.08.86l-2.11.12v7.17h43v-7.17l-2.11-.12a17.59,17.59,0,0,1-5.08-.86,10.63,10.63,0,0,1-3.25-2,3.73,3.73,0,0,1-1.07-3V235a3.75,3.75,0,0,1,1.07-3,10.44,10.44,0,0,1,3.25-2,17.49,17.49,0,0,1,5.09-.87l2.1-.12v-7.16h-43Z"/><path class="cls-3" d="M973.13,381.5h-2.22v-6.9h35v6.9h-2.23c-1,0-2.37,0-3.95.09a16.15,16.15,0,0,0-4.25.8,13.7,13.7,0,0,0-3.89,2.08,8.6,8.6,0,0,0-2.62,3.7l-9.19,25.3c-1.83-.53-3.67-1-5.53-1.41-.52-.12-1-.22-1.55-.31l9.08-25.16c.54-1.35.67-2.37.37-2.86a3.16,3.16,0,0,0-1.71-1.47,10.62,10.62,0,0,0-3.44-.67Q974.72,381.5,973.13,381.5Z"/><path class="cls-4" d="M916.93,450.53a75,75,0,0,0-7.25,17.93,96.47,96.47,0,0,0-2.44,12.2l-11.74-29.8L892.81,444l-22-55.85a8.6,8.6,0,0,0-2.62-3.7,13.44,13.44,0,0,0-3.89-2.08,15.93,15.93,0,0,0-4.25-.8c-1.57-.06-2.88-.09-3.94-.09h-2.23v-6.9h48.71v6.9h-2.23c-1,0-2.33,0-3.85.09a10.36,10.36,0,0,0-3.47.74,3.3,3.3,0,0,0-1.74,1.47c-.2.33-.18,1.22.43,2.72l16.15,41.07,2.29,5.81Z"/><path class="cls-5" d="M975.07,426.32a36.9,36.9,0,0,0-7-1.7l2.6-7.21c.77.13,1.54.3,2.32.46,1.59.36,3.18.76,4.75,1.2Z"/><path class="cls-6" d="M1066.09,374.6v6.9h-2.23q-1.59,0-3.84.09a15,15,0,0,0-4.14.8,14.62,14.62,0,0,0-4,2.11,8.07,8.07,0,0,0-2.68,3.67L997.09,520.51h-18l-19-52.27-18.85,52.27H922.91L912.22,493.3A95,95,0,0,1,915.43,470a71.23,71.23,0,0,1,4.38-12.12l18.88,48,17.52-48.43-9.31-25.66-2-5.6-3-8.21-2-5.64L931,388.11a9,9,0,0,0-2.65-3.77,10.61,10.61,0,0,0-3.76-2,18.6,18.6,0,0,0-4.32-.73c-1.58-.06-2.9-.09-3.94-.09h-2.23v-6.9h48.71v6.9h-2.23c-1.06,0-2.33,0-3.85.09a10.67,10.67,0,0,0-3.43.67,3.31,3.31,0,0,0-1.71,1.47c-.3.49-.16,1.51.34,2.79l8.6,23.88,2.19,6,2.84,7.87,1.27,3.55,18.49,51.22,3.79,10.5.1.29.71,2,5.1,14.08,13.56-34.5,10.12-25.72L1042,386.54c.61-1.52.62-2.41.43-2.75a3.41,3.41,0,0,0-1.76-1.46,10.2,10.2,0,0,0-3.47-.74c-1.5-.06-2.8-.09-3.84-.09h-2.23v-6.9Z"/><path class="cls-7" d="M1010.18,458.31l-6.9,10.38L994.47,482l-1.05-2.92-1.27-3.47c3.38-17,2.32-29.88-3.15-38.41a25.88,25.88,0,0,0-8.53-8.32,26.53,26.53,0,0,0-5.4-2.54c-.26-.09-.51-.18-.78-.25a35.5,35.5,0,0,0-6.25-1.46c-.8-.13-1.62-.24-2.45-.31a53.41,53.41,0,0,0-5.92-.3,50.09,50.09,0,0,0-7.35.51,45.54,45.54,0,0,0-7.46,1.69l-3-8.2c2.46-.49,5-.89,7.65-1.16a97.8,97.8,0,0,1,10.13-.52c1,0,2,0,3.08.1a59.82,59.82,0,0,1,7.89,1l.56.11c.58.1,1.18.23,1.76.35,1.59.36,3.18.76,4.75,1.21,1.9.55,3.79,1.17,5.65,1.85,1.11.44,2.22.87,3.32,1.34A76.51,76.51,0,0,1,999,428.84a41.56,41.56,0,0,1,9.36,8.37,21.75,21.75,0,0,1,4.17,8,13.31,13.31,0,0,1,.46,2.06A15.1,15.1,0,0,1,1010.18,458.31Z"/><path class="cls-8" d="M1026.38,520.64l-1,3.11a109.57,109.57,0,0,1-8.71,19.58,62.72,62.72,0,0,1-13.16,16.14,59.78,59.78,0,0,1-18.72,10.87,73.21,73.21,0,0,1-25.1,4c-12.64,0-23.83-2.29-33.26-6.84a70.47,70.47,0,0,1-23.67-18.05,76.52,76.52,0,0,1-14.16-25.48,91.48,91.48,0,0,1,0-57.89,73.67,73.67,0,0,1,3.27-8.27,70,70,0,0,1,3.65-6.92,72.72,72.72,0,0,1,7.25-10.08,64.93,64.93,0,0,1,7.45-7.38q2.34-2,4.88-3.78A77.23,77.23,0,0,1,926.42,423a64.58,64.58,0,0,1,9.66-3.62l3.28,9c-.93.46-1.85,1-2.75,1.5a53.55,53.55,0,0,0-15.72,14.43c-.35.46-.68.92-1,1.39-1,1.53-2,3.11-3,4.76a75,75,0,0,0-7.25,17.93,96.47,96.47,0,0,0-2.44,12.2,99.72,99.72,0,0,0-1,13.73,4.18,4.18,0,0,0,0,.5,76.8,76.8,0,0,0,4.24,25.51,63.16,63.16,0,0,0,12,21,57.37,57.37,0,0,0,18.72,14.12,56.25,56.25,0,0,0,24.45,5.2c11.91,0,22.43-3.31,31.27-9.87s16-16.24,21.06-28.69l.59-1.47Z"/><path class="cls-9" d="M960,693.16c-113.76,0-206.32-92.56-206.32-206.32V309.28C753.68,195.51,846.24,103,960,103s206.32,92.55,206.32,206.32V486.84C1166.32,600.6,1073.76,693.16,960,693.16Zm0-578c-107,0-194.1,87.07-194.1,194.1V486.84c0,107,87.07,194.1,194.1,194.1s194.1-87.07,194.1-194.1V309.28C1154.1,202.25,1067,115.18,960,115.18Z"/><path class="cls-10" d="M960,661.25c-96.17,0-174.42-78.24-174.42-174.41V309.28c0-96.18,78.25-174.42,174.42-174.42s174.42,78.24,174.42,174.42V486.84C1134.42,583,1056.17,661.25,960,661.25Zm0-521c-93.18,0-169,75.81-169,169V486.84c0,93.18,75.81,169,169,169s169-75.8,169-169V309.28C1129,216.1,1053.18,140.29,960,140.29Z"/><path class="cls-11" d="M493.77,859.87H474.44c2.23-2,3-5,3-10.72V789.24c0-5.7-.78-8.71-3-10.72h19.33c-2.23,2-2.91,5-2.91,10.72v59.91C490.86,854.85,491.54,857.86,493.77,859.87Z"/><path class="cls-12" d="M568.76,859.87c1.79-3.57-1.46-7.93-3.91-12.07l-14.53-25.48c-1.68.12-3.24.12-4.92.12h-7.82v26.71c0,5.7.67,8.71,2.9,10.72H521.26c2.24-2,3-5,3-10.72V789.24c0-5.58-.78-8.71-3-10.72h24.48c19.33,0,35.31,2.23,35.31,21.12,0,10.5-7.37,17.21-18.1,20.45l15.31,26.71c2.46,4,5.36,10.17,9.94,13.07Zm-2.13-60.34c0-16.54-11.06-17.22-23.58-17.22h-5.47v36.55h6.93C557.25,818.86,566.63,813.83,566.63,799.53Z"/><path class="cls-13" d="M628.43,859.87H609.1c2.23-2,3-5,3-10.72V789.24c0-5.7-.78-8.71-3-10.72h19.33c-2.23,2-2.91,5-2.91,10.72v59.91C625.52,854.85,626.2,857.86,628.43,859.87Z"/><path class="cls-14" d="M652,853.73l2.46-7.83h.11c5,6.71,14.64,11,25,11,10.84,0,17.21-4.7,17.21-13,0-21.23-41.46-18.21-41.46-43.81,0-14,11.51-22.24,27-22.24,9.27,0,19.44,2.91,25.14,6.93l-2.68,7.94h-.11c-5.25-7.27-13.08-11.07-22.35-11.07-10.28,0-16.43,4.92-16.43,12.63,0,19.45,42.13,16.43,42.13,43.81,0,13.86-11,22.58-28.5,22.58C669.56,860.66,657.82,857.75,652,853.73Z"/><path class="cls-15" d="M804.78,859.87H785.33c2.24-2,3-5,3-10.72V817H749.68v32.19c0,5.7.67,8.71,2.91,10.72H733.25c2.24-2,3-5,3-10.72V789.24c0-5.7-.78-8.71-3-10.72h19.34c-2.24,2-2.91,5-2.91,10.72v24h38.67v-24c0-5.7-.78-8.71-3-10.72h19.45c-2.24,2-3,5-3,10.72v59.91C801.76,854.85,802.54,857.86,804.78,859.87Z"/><path class="cls-16" d="M971.06,778.52c-3.35,2.12-4,5.92-5,8.94l-21.8,72.41H930.83l-13.41-44.36-14.08,44.36H889.71l-23.36-72.08c-.9-2.9-1.57-6.37-5.25-9.27h19.66c-2.9,1.78-2.45,4.47-1.11,8.71L901,853.84l14.42-45.15-6.37-21c-.89-2.79-1.79-6.93-5-9.16h19.22c-2.68,1.78-2.23,4.58-1.11,8.71l19.66,66.39,20.12-66.39c1.34-4.36,2-6.93-1.12-8.71Z"/><path class="cls-17" d="M1063.15,859.87H1043.7c2.24-2,3-5,3-10.72V817h-38.67v32.19c0,5.7.67,8.71,2.91,10.72H991.62c2.24-2,3-5,3-10.72V789.24c0-5.7-.78-8.71-3-10.72H1011c-2.24,2-2.91,5-2.91,10.72v24h38.67v-24c0-5.7-.78-8.71-3-10.72h19.45c-2.24,2-3,5-3,10.72v59.91C1060.13,854.85,1060.91,857.86,1063.15,859.87Z"/><path class="cls-18" d="M1110,859.87h-19.33c2.23-2,3-5,3-10.72V789.24c0-5.7-.78-8.71-3-10.72H1110c-2.24,2-2.91,5-2.91,10.72v59.91C1107.06,854.85,1107.73,857.86,1110,859.87Z"/><path class="cls-19" d="M1133.55,853.73l2.46-7.83h.11c5,6.71,14.64,11,25,11,10.84,0,17.21-4.7,17.21-13,0-21.23-41.46-18.21-41.46-43.81,0-14,11.51-22.24,27-22.24,9.27,0,19.44,2.91,25.14,6.93l-2.68,7.94h-.11c-5.25-7.27-13.08-11.07-22.35-11.07-10.28,0-16.43,4.92-16.43,12.63,0,19.45,42.13,16.43,42.13,43.81,0,13.86-11,22.58-28.5,22.58C1151.09,860.66,1139.36,857.75,1133.55,853.73Z"/><path class="cls-20" d="M1231.22,831.38v17.77c0,5.7.67,8.71,2.91,10.72h-19.34c2.24-2,3-5,3-10.72V789.24c0-5.7-.78-8.71-3-10.72h19.34c-2.24,2-2.91,5-2.91,10.72v35.65l34.2-40.23a4.09,4.09,0,0,0-.34-6.14h10.73L1249.21,810l24.14,37.44c2.46,3.91,6,10.28,10.06,12.4h-17l-25.7-39.67Z"/><path class="cls-21" d="M1354,851.38v8.49H1301.4c2.24-2,3-5,3-10.72V789.24c0-5.7-.78-8.71-3-10.72h52.19V787h-.22c-1.9-3.13-7.94-4.81-13.41-4.81h-22.13v31.3h17.54c4.81,0,8.16-.56,10.17-2.35v8.49c-2-1.79-5.36-2.46-10.17-2.46h-17.54v39h22.57c5.59,0,11.51-1.68,13.41-4.81Z"/><path class="cls-22" d="M1445.56,778.52c-3.46,1.56-5.92,6.37-7.82,9.61l-22.8,40.45v20.57c0,5.7.78,8.71,3,10.72h-20.45c2.23-2,3-5,3-10.72V828.69l-22-40.68c-1.68-3.12-3.69-7.15-7.38-9.49h21.68c-3.12,2.34-2,5.58-.22,8.94l20.12,36.65,20.78-36.43c1.9-3.35,3-6.59-.22-9.16Z"/><path class="cls-23" d="M699.71,929.45l-1.39,5.13h-.07c-2-3-5.62-6.52-11.3-6.52-9.72,0-16.72,7.63-16.79,22.83,0,16.78,6.59,23.72,16.51,23.72,5.2,0,8.25-2.15,11.72-5.27h.07l1.81,3.47A23.55,23.55,0,0,1,686.46,977c-16.93,0-25.53-12.49-25.6-26.08s9.09-25.33,25.32-25.33A25.85,25.85,0,0,1,699.71,929.45Z"/><path class="cls-24" d="M764.36,951.09c0,15.48-10.75,25.95-24.7,25.95S715,966.57,715,951.09c0-15.19,10.75-25.46,24.69-25.46S764.36,935.9,764.36,951.09Zm-40.1,0c.07,16.31,6.8,23.59,15.4,23.59S755,967.4,755,951.09c.06-15.74-6.8-23.1-15.34-23.1S724.26,935.35,724.26,951.09Z"/><path class="cls-25" d="M815.48,971.21v5.34H782.81c1.38-1.24,1.87-3.12,1.87-6.65V932.71c0-3.54-.49-5.41-1.87-6.66h12c-1.39,1.25-1.81,3.12-1.81,6.66V974.2h14c3.4,0,7.21-1,8.32-3Z"/><path class="cls-26" d="M864.8,971.21v5.34H832.12c1.39-1.24,1.88-3.12,1.88-6.65V932.71c0-3.54-.49-5.41-1.88-6.66h12c-1.38,1.25-1.8,3.12-1.8,6.66V974.2h13.95c3.4,0,7.21-1,8.32-3Z"/><path class="cls-27" d="M914.12,971.28v5.27H881.44c1.39-1.24,1.88-3.12,1.88-6.65V932.71c0-3.54-.49-5.41-1.88-6.66h32.4v5.27h-.14c-1.18-1.94-4.92-3-8.32-3H891.64v19.42h10.89c3,0,5.07-.34,6.31-1.45v5.27c-1.24-1.11-3.32-1.53-6.31-1.53H891.64v24.22h14c3.47,0,7.15-1,8.33-3Z"/><path class="cls-28" d="M968.57,929.45l-1.39,5.13h-.07c-2-3-5.62-6.52-11.31-6.52-9.71,0-16.71,7.63-16.78,22.83,0,16.78,6.59,23.72,16.51,23.72,5.2,0,8.25-2.15,11.72-5.27h.07l1.8,3.47a23.49,23.49,0,0,1-13.8,4.23c-16.93,0-25.53-12.49-25.6-26.08s9.09-25.33,25.32-25.33A25.85,25.85,0,0,1,968.57,929.45Z"/><path class="cls-29" d="M1022.4,931.32h-.14c-1.18-1.94-4.93-3-8.33-3h-7.21l.07,41.56c0,3.53.48,5.41,1.87,6.65H996.59c1.39-1.24,1.8-3.12,1.8-6.65l.07-41.56h-7.14c-3.4,0-7.15,1-8.33,3h-.14v-5.27h39.55Z"/><path class="cls-30" d="M1050.83,976.55h-12c1.39-1.24,1.87-3.12,1.87-6.65V932.71c0-3.54-.48-5.41-1.87-6.66h12c-1.38,1.25-1.8,3.12-1.8,6.66V969.9C1049,973.43,1049.45,975.31,1050.83,976.55Z"/><path class="cls-31" d="M1108.41,961.15c0,10.69-6.87,15.4-19.84,15.4h-17.9c1.39-1.24,1.87-3.12,1.87-6.65V932.71c0-3.54-.48-5.41-1.87-6.66h20.26c10.61,0,15.4,4,15.4,11.17,0,5.34-3.54,8.88-9.3,10.2C1103.48,949,1108.41,953.73,1108.41,961.15Zm-27.54-32.88v18.18h7.56c5.76,0,9.16-2.36,9.16-9,0-7.29-3.89-9.16-10.27-9.16Zm7.7,20.4h-7.7v25.66h6.73c7,0,12-3.12,12-13.45C1099.67,953,1095.37,948.67,1088.57,948.67Z"/><path class="cls-32" d="M1159.74,971.21v5.34h-32.68c1.39-1.24,1.88-3.12,1.88-6.65V932.71c0-3.54-.49-5.41-1.88-6.66h12c-1.39,1.25-1.81,3.12-1.81,6.66V974.2h14c3.4,0,7.21-1,8.32-3Z"/><path class="cls-33" d="M1209.06,971.28v5.27h-32.68c1.39-1.24,1.88-3.12,1.88-6.65V932.71c0-3.54-.49-5.41-1.88-6.66h32.4v5.27h-.14c-1.18-1.94-4.92-3-8.32-3h-13.74v19.42h10.89c3,0,5.07-.34,6.31-1.45v5.27c-1.24-1.11-3.32-1.53-6.31-1.53h-10.89v24.22h14c3.47,0,7.15-1,8.33-3Z"/><path class="cls-34" d="M1224.31,972.74l1.53-4.86h.07c3.12,4.17,9.09,6.8,15.54,6.8,6.73,0,10.68-2.91,10.68-8,0-13.18-25.74-11.3-25.74-27.19,0-8.67,7.15-13.81,16.79-13.81,5.76,0,12.07,1.81,15.61,4.3l-1.66,4.93h-.07a16.49,16.49,0,0,0-13.88-6.87c-6.38,0-10.2,3.06-10.2,7.84,0,12.07,26.16,10.2,26.16,27.2,0,8.6-6.8,14-17.69,14C1235.21,977,1227.92,975.24,1224.31,972.74Z"/></svg>