<svg id="Layer_1" data-name="Layer 1" xmlns="http://www.w3.org/2000/svg" xmlns:xlink="http://www.w3.org/1999/xlink" viewBox="0 0 1920 1080"><defs><style>.cls-1{fill:#191919;}.cls-2{fill:url(#linear-gradient);}.cls-3{fill:url(#linear-gradient-2);}.cls-4{fill:url(#linear-gradient-3);}.cls-5{fill:url(#linear-gradient-4);}.cls-6{fill:url(#linear-gradient-5);}.cls-7{fill:url(#linear-gradient-6);}.cls-8{fill:url(#linear-gradient-7);}.cls-9{fill:url(#linear-gradient-8);}.cls-10{fill:url(#linear-gradient-9);}.cls-11{fill:url(#linear-gradient-10);}.cls-12{fill:url(#linear-gradient-11);}.cls-13{fill:url(#linear-gradient-12);}.cls-14{fill:url(#linear-gradient-13);}.cls-15{fill:url(#linear-gradient-14);}.cls-16{fill:url(#linear-gradient-15);}.cls-17{fill:url(#linear-gradient-16);}.cls-18{fill:url(#linear-gradient-17);}.cls-19{fill:url(#linear-gradient-18);}.cls-20{fill:url(#linear-gradient-19);}.cls-21{fill:url(#linear-gradient-20);}.cls-22{fill:url(#linear-gradient-21);}.cls-23{fill:url(#linear-gradient-22);}.cls-24{fill:url(#linear-gradient-23);}.cls-25{fill:url(#linear-gradient-24);}</style><linearGradient id="linear-gradient" x1="-24.43" y1="221.56" x2="1407.87" y2="1653.87" gradientUnits="userSpaceOnUse"><stop offset="0" stop-color="#8c6034"/><stop offset="0.5" stop-color="#ffe79f"/><stop offset="1" stop-color="#8c6034"/></linearGradient><linearGradient id="linear-gradient-2" x1="24.2" y1="172.93" x2="1456.51" y2="1605.24" xlink:href="#linear-gradient"/><linearGradient id="linear-gradient-3" x1="82.93" y1="114.2" x2="1515.24" y2="1546.5" xlink:href="#linear-gradient"/><linearGradient id="linear-gradient-4" x1="131.54" y1="65.59" x2="1563.84" y2="1497.9" xlink:href="#linear-gradient"/><linearGradient id="linear-gradient-5" x1="202.73" y1="-5.6" x2="1635.03" y2="1426.7" xlink:href="#linear-gradient"/><linearGradient id="linear-gradient-6" x1="331.4" y1="-134.26" x2="1763.71" y2="1298.05" xlink:href="#linear-gradient"/><linearGradient id="linear-gradient-7" x1="408.74" y1="-211.6" x2="1841.04" y2="1220.7" xlink:href="#linear-gradient"/><linearGradient id="linear-gradient-8" x1="466.87" y1="-269.74" x2="1899.18" y2="1162.57" xlink:href="#linear-gradient"/><linearGradient id="linear-gradient-9" x1="515.48" y1="-318.35" x2="1947.78" y2="1113.96" xlink:href="#linear-gradient"/><linearGradient id="linear-gradient-10" x1="582.48" y1="-385.35" x2="2014.79" y2="1046.95" xlink:href="#linear-gradient"/><linearGradient id="linear-gradient-11" x1="648.02" y1="-450.89" x2="2080.32" y2="981.42" xlink:href="#linear-gradient"/><linearGradient id="linear-gradient-12" x1="723" y1="-525.86" x2="2155.3" y2="906.44" xlink:href="#linear-gradient"/><linearGradient id="linear-gradient-13" x1="30.83" y1="166.3" x2="1463.14" y2="1598.61" xlink:href="#linear-gradient"/><linearGradient id="linear-gradient-14" x1="74.02" y1="123.11" x2="1506.33" y2="1555.41" xlink:href="#linear-gradient"/><linearGradient id="linear-gradient-15" x1="113.18" y1="83.95" x2="1545.49" y2="1516.26" xlink:href="#linear-gradient"/><linearGradient id="linear-gradient-16" x1="152.5" y1="44.63" x2="1584.81" y2="1476.94" xlink:href="#linear-gradient"/><linearGradient id="linear-gradient-17" x1="199.96" y1="-2.82" x2="1632.26" y2="1429.48" xlink:href="#linear-gradient"/><linearGradient id="linear-gradient-18" x1="245.2" y1="-48.07" x2="1677.5" y2="1384.24" xlink:href="#linear-gradient"/><linearGradient id="linear-gradient-19" x1="289.14" y1="-92" x2="1721.44" y2="1340.3" xlink:href="#linear-gradient"/><linearGradient id="linear-gradient-20" x1="317.31" y1="-120.18" x2="1749.62" y2="1312.13" xlink:href="#linear-gradient"/><linearGradient id="linear-gradient-21" x1="349.55" y1="-152.42" x2="1781.86" y2="1279.88" xlink:href="#linear-gradient"/><linearGradient id="linear-gradient-22" x1="387.66" y1="-190.53" x2="1819.97" y2="1241.77" xlink:href="#linear-gradient"/><linearGradient id="linear-gradient-23" x1="435.12" y1="-237.98" x2="1867.42" y2="1194.32" xlink:href="#linear-gradient"/><linearGradient id="linear-gradient-24" x1="474.13" y1="-277" x2="1906.44" y2="1155.3" xlink:href="#linear-gradient"/></defs><title>vector file</title><rect class="cls-1" x="-2187.28" y="-60.17" width="6294.56" height="1200.35"/><path class="cls-2" d="M216.54,512H185.71c3.56-3.21,4.81-8,4.81-17.11V399.36c0-9.09-1.25-13.91-4.81-17.11h30.83c-3.57,3.2-4.64,8-4.64,17.11v95.52C211.9,504,213,508.78,216.54,512Z"/><path class="cls-3" d="M336.11,512c2.85-5.71-2.31-12.66-6.24-19.25l-23.16-40.63c-2.68.18-5.17.18-7.84.18H286.39v42.59c0,9.09,1.07,13.9,4.64,17.11H260.37c3.57-3.21,4.81-8,4.81-17.11V399.36c0-8.91-1.24-13.91-4.81-17.11h39c30.83,0,56.32,3.56,56.32,33.68,0,16.75-11.77,27.44-28.88,32.61l24.42,42.59c3.92,6.42,8.55,16.22,15.86,20.86Zm-3.38-96.24c0-26.37-17.65-27.44-37.61-27.44h-8.73v58.27h11.05C317.76,446.58,332.73,438.56,332.73,415.75Z"/><path class="cls-4" d="M431.27,512H400.44c3.56-3.21,4.81-8,4.81-17.11V399.36c0-9.09-1.25-13.91-4.81-17.11h30.83c-3.57,3.2-4.64,8-4.64,17.11v95.52C426.63,504,427.7,508.78,431.27,512Z"/><path class="cls-5" d="M468.87,502.18l3.92-12.47H473c8,10.69,23.34,17.46,39.92,17.46,17.28,0,27.44-7.48,27.44-20.67,0-33.86-66.12-29.05-66.12-69.86,0-22.27,18.36-35.46,43.13-35.46,14.79,0,31,4.63,40.1,11.05l-4.28,12.65H553c-8.37-11.58-20.85-17.64-35.64-17.64-16.39,0-26.2,7.84-26.2,20.14,0,31,67.19,26.19,67.19,69.85,0,22.1-17.46,36-45.44,36C496.85,513.23,478.14,508.6,468.87,502.18Z"/><path class="cls-6" d="M712.48,512h-31c3.56-3.21,4.81-8,4.81-17.11V443.55H624.62v51.33c0,9.09,1.07,13.9,4.63,17.11H598.42c3.57-3.21,4.81-8,4.81-17.11V399.36c0-9.09-1.24-13.91-4.81-17.11h30.83c-3.56,3.2-4.63,8-4.63,17.11v38.31h61.66V399.36c0-9.09-1.25-13.91-4.81-17.11h31c-3.57,3.2-4.81,8-4.81,17.11v95.52C707.67,504,708.91,508.78,712.48,512Z"/><path class="cls-7" d="M977.64,382.25c-5.34,3.38-6.41,9.44-8,14.26L934.87,512H913.49L892.1,441.24,869.65,512H847.91L810.66,397c-1.42-4.63-2.49-10.16-8.38-14.79h31.37c-4.64,2.85-3.92,7.13-1.78,13.9l34,106.21,23-72-10.15-33.5c-1.43-4.45-2.85-11.05-8-14.61h30.65c-4.28,2.85-3.56,7.3-1.78,13.9L931,502,963,396.15c2.14-6.95,3.21-11-1.78-13.9Z"/><path class="cls-8" d="M1124.49,512h-31c3.56-3.21,4.81-8,4.81-17.11V443.55h-61.66v51.33c0,9.09,1.07,13.9,4.63,17.11h-30.83c3.56-3.21,4.81-8,4.81-17.11V399.36c0-9.09-1.25-13.91-4.81-17.11h30.83c-3.56,3.2-4.63,8-4.63,17.11v38.31h61.66V399.36c0-9.09-1.25-13.91-4.81-17.11h31c-3.57,3.2-4.82,8-4.82,17.11v95.52C1119.67,504,1120.92,508.78,1124.49,512Z"/><path class="cls-9" d="M1199.15,512h-30.83c3.56-3.21,4.81-8,4.81-17.11V399.36c0-9.09-1.25-13.91-4.81-17.11h30.83c-3.57,3.2-4.64,8-4.64,17.11v95.52C1194.51,504,1195.58,508.78,1199.15,512Z"/><path class="cls-10" d="M1236.75,502.18l3.92-12.47h.18c8,10.69,23.34,17.46,39.92,17.46,17.28,0,27.44-7.48,27.44-20.67,0-33.86-66.12-29.05-66.12-69.86,0-22.27,18.36-35.46,43.13-35.46,14.79,0,31,4.63,40.1,11.05L1321,404.88h-.18c-8.37-11.58-20.85-17.64-35.64-17.64-16.39,0-26.2,7.84-26.2,20.14,0,31,67.19,26.19,67.19,69.85,0,22.1-17.47,36-45.44,36C1264.73,513.23,1246,508.6,1236.75,502.18Z"/><path class="cls-11" d="M1392.5,466.54v28.34c0,9.09,1.07,13.9,4.63,17.11H1366.3c3.56-3.21,4.81-8,4.81-17.11V399.36c0-9.09-1.25-13.91-4.81-17.11h30.83c-3.56,3.2-4.63,8-4.63,17.11v56.85L1447,392.05c2.85-3.21,2.49-7.49-.54-9.8h17.11l-42.41,50.25,38.49,59.7c3.92,6.24,9.63,16.4,16,19.79h-27.09l-41-63.27Z"/><path class="cls-12" d="M1588.35,498.44V512h-83.94c3.56-3.21,4.81-8,4.81-17.11V399.36c0-9.09-1.25-13.91-4.81-17.11h83.22v13.54h-.35c-3-5-12.66-7.66-21.39-7.66H1530.6V438h28c7.67,0,13-.89,16.22-3.74v13.54c-3.21-2.85-8.55-3.92-16.22-3.92h-28V506.1h36c8.91,0,18.36-2.67,21.39-7.66Z"/><path class="cls-13" d="M1734.29,382.25c-5.52,2.49-9.44,10.16-12.47,15.32l-36.35,64.52v32.79c0,9.09,1.24,13.9,4.81,17.11h-32.62c3.57-3.21,4.81-8,4.81-17.11V462.26l-35.1-64.86c-2.68-5-5.88-11.41-11.76-15.15h34.57c-5,3.74-3.21,8.91-.36,14.26L1681.9,455l33.15-58.1c3-5.35,4.81-10.51-.36-14.61Z"/><path class="cls-14" d="M544.94,622.93l-2.22,8.19h-.11c-3.21-4.76-9-10.4-18-10.4-15.49,0-26.66,12.17-26.77,36.4,0,26.77,10.51,37.83,26.33,37.83,8.29,0,13.16-3.43,18.69-8.41h.11l2.88,5.53a37.41,37.41,0,0,1-22,6.75c-27,0-40.71-19.91-40.82-41.59s14.5-40.38,40.38-40.38C531.88,616.85,540.18,619.72,544.94,622.93Z"/><path class="cls-15" d="M648,657.45c0,24.67-17.15,41.37-39.39,41.37s-39.38-16.7-39.38-41.37c0-24.23,17.15-40.6,39.38-40.6S648,633.22,648,657.45Zm-63.95,0c.12,26,10.85,37.61,24.56,37.61s24.45-11.61,24.45-37.61c.11-25.11-10.84-36.84-24.45-36.84S584.08,632.34,584.08,657.45Z"/><path class="cls-16" d="M729.54,689.53v8.52h-52.1c2.21-2,3-5,3-10.62v-59.3c0-5.64-.78-8.63-3-10.62h19.14c-2.21,2-2.88,5-2.88,10.62v66.16h22.24c5.42,0,11.5-1.66,13.27-4.76Z"/><path class="cls-17" d="M808.19,689.53v8.52H756.08c2.22-2,3-5,3-10.62v-59.3c0-5.64-.77-8.63-3-10.62h19.14c-2.21,2-2.87,5-2.87,10.62v66.16h22.23c5.42,0,11.51-1.66,13.28-4.76Z"/><path class="cls-18" d="M886.83,689.64v8.41h-52.1c2.21-2,3-5,3-10.62v-59.3c0-5.64-.78-8.63-3-10.62h51.66v8.41h-.22c-1.88-3.1-7.85-4.76-13.27-4.76H851v31h17.37c4.76,0,8.07-.56,10.07-2.32v8.4c-2-1.77-5.31-2.43-10.07-2.43H851V694.4h22.35c5.53,0,11.39-1.66,13.27-4.76Z"/><path class="cls-19" d="M973.67,622.93l-2.22,8.19h-.11c-3.21-4.76-9-10.4-18-10.4-15.49,0-26.66,12.17-26.77,36.4,0,26.77,10.51,37.83,26.33,37.83,8.3,0,13.16-3.43,18.69-8.41h.11l2.88,5.53a37.38,37.38,0,0,1-22,6.75c-27,0-40.72-19.91-40.83-41.59s14.5-40.38,40.38-40.38C960.61,616.85,968.91,619.72,973.67,622.93Z"/><path class="cls-20" d="M1059.5,625.92h-.22c-1.88-3.1-7.86-4.76-13.28-4.76h-11.5l.11,66.27c0,5.64.77,8.63,3,10.62h-19.25c2.21-2,2.87-5,2.87-10.62l.11-66.27h-11.39c-5.42,0-11.4,1.66-13.28,4.76h-.22v-8.41h63.06Z"/><path class="cls-21" d="M1104.84,698.05h-19.13c2.21-2,3-5,3-10.62v-59.3c0-5.64-.77-8.63-3-10.62h19.13c-2.21,2-2.87,5-2.87,10.62v59.3C1102,693.07,1102.63,696.06,1104.84,698.05Z"/><path class="cls-22" d="M1196.66,673.49c0,17-11,24.56-31.64,24.56h-28.54c2.21-2,3-5,3-10.62v-59.3c0-5.64-.78-8.63-3-10.62h32.3c16.93,0,24.56,6.31,24.56,17.81,0,8.52-5.64,14.16-14.82,16.26C1188.8,654.13,1196.66,661.65,1196.66,673.49Zm-43.92-52.44v29h12.06c9.18,0,14.6-3.77,14.6-14.39,0-11.61-6.19-14.6-16.37-14.6ZM1165,653.58h-12.28v40.93h10.73c11.17,0,19.14-5,19.14-21.46C1182.72,660.55,1175.86,653.58,1165,653.58Z"/><path class="cls-23" d="M1278.51,689.53v8.52h-52.1c2.21-2,3-5,3-10.62v-59.3c0-5.64-.77-8.63-3-10.62h19.13c-2.21,2-2.87,5-2.87,10.62v66.16h22.23c5.42,0,11.51-1.66,13.28-4.76Z"/><path class="cls-24" d="M1357.15,689.64v8.41h-52.1c2.21-2,3-5,3-10.62v-59.3c0-5.64-.78-8.63-3-10.62h51.66v8.41h-.22c-1.88-3.1-7.85-4.76-13.27-4.76h-21.91v31h17.37c4.76,0,8.08-.56,10.07-2.32v8.4c-2-1.77-5.31-2.43-10.07-2.43h-17.37V694.4h22.35c5.53,0,11.39-1.66,13.27-4.76Z"/><path class="cls-25" d="M1381.48,692l2.44-7.74h.11c5,6.64,14.49,10.84,24.78,10.84,10.73,0,17-4.65,17-12.83,0-21-41-18-41-43.37,0-13.83,11.4-22,26.77-22,9.19,0,19.25,2.87,24.89,6.86l-2.65,7.85h-.11c-5.2-7.19-12.94-10.95-22.13-10.95-10.18,0-16.26,4.87-16.26,12.5,0,19.25,41.71,16.26,41.71,43.37,0,13.71-10.84,22.34-28.21,22.34C1398.85,698.82,1387.23,696,1381.48,692Z"/></svg>