<svg id="Layer_1" data-name="Layer 1" xmlns="http://www.w3.org/2000/svg" xmlns:xlink="http://www.w3.org/1999/xlink" viewBox="0 0 1920 1080"><defs><style>.cls-1{fill:#191919;}.cls-2{fill:url(#linear-gradient);}.cls-3{fill:url(#linear-gradient-2);}.cls-4{fill:url(#linear-gradient-3);}.cls-5{fill:url(#linear-gradient-4);}.cls-6{fill:url(#linear-gradient-5);}.cls-7{fill:url(#linear-gradient-6);}.cls-8{fill:url(#linear-gradient-7);}.cls-9{fill:url(#linear-gradient-8);}.cls-10{fill:url(#linear-gradient-9);}</style><linearGradient id="linear-gradient" x1="528.32" y1="-49.52" x2="1825.01" y2="1247.16" gradientUnits="userSpaceOnUse"><stop offset="0" stop-color="#8c6034"/><stop offset="0.5" stop-color="#ffe79f"/><stop offset="1" stop-color="#8c6034"/></linearGradient><linearGradient id="linear-gradient-2" x1="474.7" y1="4.11" x2="1771.38" y2="1300.79" xlink:href="#linear-gradient"/><linearGradient id="linear-gradient-3" x1="386.72" y1="92.08" x2="1683.41" y2="1388.77" xlink:href="#linear-gradient"/><linearGradient id="linear-gradient-4" x1="441.32" y1="37.48" x2="1738" y2="1334.16" xlink:href="#linear-gradient"/><linearGradient id="linear-gradient-5" x1="438.29" y1="40.51" x2="1734.98" y2="1337.19" xlink:href="#linear-gradient"/><linearGradient id="linear-gradient-6" x1="434.61" y1="44.2" x2="1731.29" y2="1340.88" xlink:href="#linear-gradient"/><linearGradient id="linear-gradient-7" x1="355.27" y1="123.53" x2="1651.95" y2="1420.22" xlink:href="#linear-gradient"/><linearGradient id="linear-gradient-8" x1="449.4" y1="29.4" x2="1746.09" y2="1326.09" xlink:href="#linear-gradient"/><linearGradient id="linear-gradient-9" x1="449.4" y1="29.4" x2="1746.09" y2="1326.09" xlink:href="#linear-gradient"/></defs><title>vector file</title><rect class="cls-1" x="-117.28" y="-60.17" width="6294.56" height="1200.35"/><path class="cls-2" d="M933,289.59l3.11.17a26.47,26.47,0,0,1,7.54,1.28,15.93,15.93,0,0,1,4.82,3,5.59,5.59,0,0,1,1.58,4.41V475.59a5.56,5.56,0,0,1-1.58,4.42,15.7,15.7,0,0,1-4.82,3,25.77,25.77,0,0,1-7.53,1.28l-3.12.17v10.62h63.75V484.43l-3.12-.17a25.91,25.91,0,0,1-7.54-1.28,15.62,15.62,0,0,1-4.81-3,5.52,5.52,0,0,1-1.58-4.41V298.43a5.59,5.59,0,0,1,1.58-4.41,15.7,15.7,0,0,1,4.82-3,26.07,26.07,0,0,1,7.54-1.29l3.11-.17V279H933Z"/><path class="cls-3" d="M979.45,515.48h-3.3V505.26H1028v10.22h-3.3c-1.56,0-3.52,0-5.85.13a23.71,23.71,0,0,0-6.3,1.19,20.1,20.1,0,0,0-5.76,3.08,12.62,12.62,0,0,0-3.87,5.48l-13.63,37.47c-2.7-.79-5.43-1.5-8.18-2.09-.77-.18-1.54-.33-2.29-.46L992.21,523c.8-2,1-3.52.55-4.24a4.77,4.77,0,0,0-2.53-2.18,16,16,0,0,0-5.1-1C982.91,515.52,981,515.48,979.45,515.48Z"/><path class="cls-4" d="M896.21,617.71a111.89,111.89,0,0,0-10.74,26.56,144.64,144.64,0,0,0-3.61,18.06l-17.38-44.14-4-10.12L828,525.36a12.7,12.7,0,0,0-3.87-5.48,19.76,19.76,0,0,0-5.77-3.08,23.28,23.28,0,0,0-6.29-1.19c-2.33-.09-4.27-.13-5.83-.13h-3.3V505.26H875v10.22h-3.3c-1.56,0-3.46,0-5.7.13a15.33,15.33,0,0,0-5.15,1.1,4.84,4.84,0,0,0-2.57,2.18c-.29.48-.27,1.8.63,4l23.92,60.82,3.39,8.61Z"/><path class="cls-5" d="M982.31,581.86a54.31,54.31,0,0,0-10.41-2.53l3.86-10.67c1.14.2,2.28.44,3.43.68,2.35.53,4.71,1.12,7,1.78Z"/><path class="cls-6" d="M1117.11,505.26v10.22h-3.3c-1.56,0-3.45,0-5.68.13a22.21,22.21,0,0,0-6.13,1.19,21.73,21.73,0,0,0-6,3.12,11.84,11.84,0,0,0-4,5.44l-77.13,196H988.21L960,643.94,932.1,721.35h-27l-15.85-40.29A140.88,140.88,0,0,1,894,646.53a105.31,105.31,0,0,1,6.49-17.95l28,71.14L954.39,628l-13.8-38-3-8.29-4.4-12.15-3-8.36-13-35.91a13.38,13.38,0,0,0-3.92-5.59,15.8,15.8,0,0,0-5.56-3,28.1,28.1,0,0,0-6.41-1.08c-2.33-.09-4.29-.13-5.83-.13h-3.3V505.26H964.2v10.22h-3.3c-1.56,0-3.45,0-5.7.13a16,16,0,0,0-5.08,1,4.89,4.89,0,0,0-2.53,2.18c-.44.72-.24,2.24.51,4.13l12.74,35.36,3.23,8.94,4.2,11.66,1.9,5.26L997.54,660l5.61,15.56.15.41,1.06,2.91,7.55,20.86,20.09-51.1,15-38.09,34.44-87.6c.9-2.24.92-3.56.64-4.07a5,5,0,0,0-2.6-2.15,15.07,15.07,0,0,0-5.15-1.1c-2.22-.09-4.13-.13-5.67-.13h-3.3V505.26Z"/><path class="cls-7" d="M1034.31,629.23l-10.21,15.38-13,19.67-1.56-4.31-1.87-5.15c5-25.13,3.43-44.25-4.67-56.88a38.31,38.31,0,0,0-12.63-12.32,39.6,39.6,0,0,0-8-3.77c-.37-.13-.75-.26-1.14-.37a53.52,53.52,0,0,0-9.27-2.16c-1.18-.2-2.39-.35-3.63-.46a79.07,79.07,0,0,0-8.75-.44,75.54,75.54,0,0,0-10.9.75,67,67,0,0,0-11,2.51l-4.4-12.15c3.65-.73,7.43-1.32,11.33-1.72a145.92,145.92,0,0,1,15-.77c1.49,0,3,.05,4.55.16a87.33,87.33,0,0,1,11.69,1.45c.28,0,.55.11.83.15.86.16,1.74.36,2.6.53,2.35.53,4.71,1.12,7,1.78q4.23,1.23,8.36,2.76c1.65.63,3.3,1.27,4.93,2a112.55,112.55,0,0,1,18.22,9.74A61.54,61.54,0,0,1,1031.6,598a32.38,32.38,0,0,1,6.19,11.82,22.9,22.9,0,0,1,.68,3.06C1039.35,618.36,1037.94,623.86,1034.31,629.23Z"/><path class="cls-8" d="M1058.32,721.55l-1.52,4.6a163.35,163.35,0,0,1-12.9,29A92.5,92.5,0,0,1,1024.41,779a88.18,88.18,0,0,1-27.73,16.11C986,799.05,973.53,801,959.52,801c-18.73,0-35.3-3.39-49.27-10.12a104.39,104.39,0,0,1-35-26.74,113.56,113.56,0,0,1-21-37.74,135.66,135.66,0,0,1,0-85.73,113.06,113.06,0,0,1,4.85-12.25,103.16,103.16,0,0,1,5.41-10.26,107,107,0,0,1,10.74-14.92,95.62,95.62,0,0,1,11-10.93q3.46-2.94,7.24-5.59A111.3,111.3,0,0,1,910.27,577a95.88,95.88,0,0,1,14.3-5.37L929.44,585c-1.39.68-2.75,1.43-4.08,2.22a79.34,79.34,0,0,0-23.28,21.37c-.52.68-1,1.36-1.49,2.07-1.56,2.26-3,4.6-4.38,7a111.89,111.89,0,0,0-10.74,26.56,144.64,144.64,0,0,0-3.61,18.06,149.82,149.82,0,0,0-1.45,20.34c0,.24,0,.5,0,.74a113.93,113.93,0,0,0,6.27,37.79,93.85,93.85,0,0,0,17.78,31,84.92,84.92,0,0,0,27.72,20.91c10.72,5.12,22.91,7.7,36.2,7.7,17.65,0,33.23-4.91,46.32-14.61s23.68-24.05,31.18-42.49l.88-2.18Z"/><path class="cls-9" d="M960,977C791.51,977,654.44,840,654.44,671.48v-263C654.44,240,791.51,103,960,103S1265.56,240,1265.56,408.52v263C1265.56,840,1128.49,977,960,977Zm0-856c-158.51,0-287.46,129-287.46,287.46v263c0,158.51,129,287.46,287.46,287.46s287.46-129,287.46-287.46v-263C1247.46,250,1118.51,121.06,960,121.06Z"/><path class="cls-10" d="M960,929.79c-142.43,0-258.31-115.88-258.31-258.31v-263c0-142.44,115.88-258.31,258.31-258.31s258.31,115.87,258.31,258.31v263C1218.31,813.91,1102.43,929.79,960,929.79Zm0-771.54c-138,0-250.27,112.27-250.27,250.27v263c0,138,112.27,250.27,250.27,250.27s250.27-112.27,250.27-250.27v-263C1210.27,270.52,1098,158.25,960,158.25Z"/></svg>